<svg width="12" height="12" viewBox="0 0 12 12" fill="none" xmlns="http://www.w3.org/2000/svg">
<path d="M11.6912 1.87677C11.7105 1.65664 11.6415 1.43789 11.4994 1.26861C11.3574 1.09934 11.154 0.99341 10.9338 0.974118L4.29237 0.393065C4.18232 0.381506 4.07107 0.391981 3.96511 0.423877C3.85916 0.455772 3.76061 0.508451 3.67523 0.578839C3.58985 0.649226 3.51935 0.735913 3.46783 0.833841C3.41631 0.931769 3.3848 1.03898 3.37516 1.14921C3.36552 1.25944 3.37792 1.37049 3.41165 1.47588C3.44539 1.58126 3.49977 1.67888 3.57163 1.76302C3.64349 1.84717 3.73139 1.91616 3.8302 1.96597C3.92901 2.01578 4.03675 2.04541 4.14713 2.05314L8.78453 2.45886L0.3306 9.55255C0.161293 9.69461 0.0553562 9.89812 0.0360933 10.1183C0.0168307 10.3385 0.085821 10.5573 0.227886 10.7266C0.36995 10.8959 0.573453 11.0018 0.793625 11.0211C1.0138 11.0403 1.2326 10.9714 1.40191 10.8293L9.85584 3.7356L9.45013 8.373C9.43487 8.59097 9.50583 8.80622 9.64773 8.97237C9.78963 9.13853 9.99112 9.24231 10.2088 9.26135C10.4265 9.2804 10.6429 9.21319 10.8115 9.07419C10.9801 8.9352 11.0874 8.73555 11.1102 8.51824L11.6912 1.87677Z" fill="#25221E"/>
</svg>
