<svg width="90" height="24" viewBox="0 0 90 24" fill="none" xmlns="http://www.w3.org/2000/svg">
<path d="M11.37 23.45C9.21 23.45 7.345 22.98 5.775 22.04C4.215 21.1 3.01 19.785 2.16 18.095C1.32 16.405 0.9 14.44 0.9 12.2C0.9 9.96 1.32 7.995 2.16 6.305C3.01 4.615 4.215 3.3 5.775 2.36C7.345 1.42 9.21 0.95 11.37 0.95C13.85 0.95 15.93 1.565 17.61 2.795C19.3 4.025 20.49 5.69 21.18 7.79L17.07 8.93C16.67 7.62 15.995 6.605 15.045 5.885C14.095 5.155 12.87 4.79 11.37 4.79C10 4.79 8.855 5.095 7.935 5.705C7.025 6.315 6.34 7.175 5.88 8.285C5.42 9.395 5.19 10.7 5.19 12.2C5.19 13.7 5.42 15.005 5.88 16.115C6.34 17.225 7.025 18.085 7.935 18.695C8.855 19.305 10 19.61 11.37 19.61C12.87 19.61 14.095 19.245 15.045 18.515C15.995 17.785 16.67 16.77 17.07 15.47L21.18 16.61C20.49 18.71 19.3 20.375 17.61 21.605C15.93 22.835 13.85 23.45 11.37 23.45ZM24.4828 23V1.4H28.5628V10.28H38.2228V1.4H42.3028V23H38.2228V14.09H28.5628V23H24.4828ZM46.8141 23V1.4H50.8941V23H46.8141ZM55.391 23V1.4H59.471V11.36L67.691 1.4H72.671L63.641 12.05L73.241 23H68.081L59.471 13.16V23H55.391ZM75.3422 23V1.4H89.4422V5.21H79.4222V9.83H87.6422V13.64H79.4222V19.19H89.4422V23H75.3422Z" fill="#EBEBD3"/>
</svg>
